{"title":"The Smell of Us (2014) 1080P HDTV","uid":15445298,"size":2801695525,"categoryP":"video","categoryS":"hd___movies","magnet":"?xt=urn:btih:ea49d91667c3e19f747a7daaa914d60693f98f90&amp;dn=The+Smell+of+Us+%282014%29+1080P+HDTV&amp;tr=udp%3A%2F%2Ftracker.leechers-paradise.org%3A6969&amp;tr=udp%3A%2F%2Fzer0day.ch%3A1337&amp;tr=udp%3A%2F%2Fopen.demonii.com%3A1337&amp;tr=udp%3A%2F%2Ftracker.coppersurfer.tk%3A6969&amp;tr=udp%3A%2F%2Fexodus.desync.com%3A6969","seeders":12,"leechers":4,"uploader":"jmanwf","files":1,"time":1469873636,"description":"Storyline \r\n\r\nA story centered around a group of self-destructive skateboarders in Paris. \r\n\r\n\r\nVideo \r\nID                                      : 1 \r\nFormat                                  : AVC \r\nFormat/Info                              : Advanced Video Codec \r\nFormat profile                          :    \r\nFormat settings, CABAC                  : Yes \r\nFormat settings, ReFrames                : 3 frames \r\nCodec ID                                : avc1 \r\nCodec ID/Info                            : Advanced Video Coding \r\nDuration                                : 1h 24mn \r\nBit rate mode                            : Variable \r\nBit rate                                : 4 298 Kbps \r\nMaximum bit rate                        : 30.0 Mbps \r\nWidth                                    : 1 920 pixels \r\nHeight                                  : 1 080 pixels \r\nDisplay aspect ratio                    : 16:9 \r\nFrame rate mode                          : Variable \r\nFrame rate                              : 24.000 fps \r\nMinimum frame rate                      : 12.000 fps \r\nMaximum frame rate                      : 24.000 fps \r\nColor space                              : YUV \r\nChroma subsampling                      : 4:2:0 \r\nBit depth                                : 8 bits \r\nScan type                                : Progressive \r\nBits/(Pixel*Frame)                      : 0.086 \r\nStream size                              : 2.53 GiB (97%) \r\nColor range                              : Limited \r\nColor primaries                          : BT.709 \r\nTransfer characteristics                : BT.709 \r\nMatrix coefficients                      : BT.709 \r\n\r\nAudio \r\nID                                      : 2 \r\nFormat                                  : AAC \r\nFormat/Info                              : Advanced Audio Codec \r\nFormat profile                          : LC \r\nCodec ID                                : 40 \r\nDuration                                : 1h 24mn \r\nBit rate mode                            : Constant \r\nBit rate                                : 128 Kbps \r\nChannel(s)                              : 2 channels \r\nChannel positions                        : Front: L R \r\nSampling rate                            : 48.0 KHz \r\nFrame rate                              : 46.875 fps (1024 spf) \r\nCompression mode                        : Lossy \r\nStream size                              : 77.1 MiB (3%) \r\nLanguage                                : French \r\nDefault                                  : Yes \r\nAlternate group                          : 1 \r\n\r\n\r\nAudio: French \r\n\r\n\r\n\r\nSubtitles: English Hardcoded\r\n\r\n\r\n \nhttps://s31.postimg.org/lxzs93su3/image.jpg\r\n\r\n \nhttps://s31.postimg.org/flp8d0f5n/image.jpg\r\n\r\n \nhttps://s31.postimg.org/ouren4o1n/image.jpg\r\n\r\n \nhttps://s31.postimg.org/ow1cgjpvf/image.jpg\r\n\r\n\r\n\r\nSource: World Movies Channel Foxtel Australia","torrent":{"xt":"urn:btih:ea49d91667c3e19f747a7daaa914d60693f98f90","amp;dn":"The+Smell+of+Us+%282014%29+1080P+HDTV","amp;tr":["udp%3A%2F%2Ftracker.leechers-paradise.org%3A6969","udp%3A%2F%2Fzer0day.ch%3A1337","udp%3A%2F%2Fopen.demonii.com%3A1337","udp%3A%2F%2Ftracker.coppersurfer.tk%3A6969","udp%3A%2F%2Fexodus.desync.com%3A6969"],"infoHash":"ea49d91667c3e19f747a7daaa914d60693f98f90","infoHashBuffer":{"type":"Buffer","data":[234,73,217,22,103,195,225,159,116,122,125,170,169,20,214,6,147,249,143,144]},"announce":[],"urlList":[]}}